<?xml version="1.0" encoding="UTF-8" standalone="no"?>
<svg xmlns="http://www.w3.org/2000/svg" version="1.1" width="120pt" height="100pt">
<rect x="0pt" y="0pt" width="120pt" height="100pt" style="fill:#ffffff;fill-opacity:1" />
<!-- Printing barcode for "A000100A", scaled  1.00, encoded using "codabar" -->
<!-- The space/bar succession is represented by the following widths (space first): 1113313111111133111111331111113311111331111111331111113311133131 -->
<line x1="11.500000pt" y1="80.000000pt" x2="11.500000pt" y2="10.000000pt" style="stroke:rgb(0,0,0);stroke-width:0.850000pt" />
<line x1="14.500000pt" y1="80.000000pt" x2="14.500000pt" y2="10.000000pt" style="stroke:rgb(0,0,0);stroke-width:2.850000pt" />
<line x1="19.500000pt" y1="80.000000pt" x2="19.500000pt" y2="10.000000pt" style="stroke:rgb(0,0,0);stroke-width:0.850000pt" />
<line x1="23.500000pt" y1="80.000000pt" x2="23.500000pt" y2="10.000000pt" style="stroke:rgb(0,0,0);stroke-width:0.850000pt" />
<line x1="25.500000pt" y1="80.000000pt" x2="25.500000pt" y2="10.000000pt" style="stroke:rgb(0,0,0);stroke-width:0.850000pt" />
<line x1="27.500000pt" y1="80.000000pt" x2="27.500000pt" y2="10.000000pt" style="stroke:rgb(0,0,0);stroke-width:0.850000pt" />
<line x1="29.500000pt" y1="80.000000pt" x2="29.500000pt" y2="10.000000pt" style="stroke:rgb(0,0,0);stroke-width:0.850000pt" />
<line x1="34.500000pt" y1="80.000000pt" x2="34.500000pt" y2="10.000000pt" style="stroke:rgb(0,0,0);stroke-width:2.850000pt" />
<line x1="37.500000pt" y1="80.000000pt" x2="37.500000pt" y2="10.000000pt" style="stroke:rgb(0,0,0);stroke-width:0.850000pt" />
<line x1="39.500000pt" y1="80.000000pt" x2="39.500000pt" y2="10.000000pt" style="stroke:rgb(0,0,0);stroke-width:0.850000pt" />
<line x1="41.500000pt" y1="80.000000pt" x2="41.500000pt" y2="10.000000pt" style="stroke:rgb(0,0,0);stroke-width:0.850000pt" />
<line x1="46.500000pt" y1="80.000000pt" x2="46.500000pt" y2="10.000000pt" style="stroke:rgb(0,0,0);stroke-width:2.850000pt" />
<line x1="49.500000pt" y1="80.000000pt" x2="49.500000pt" y2="10.000000pt" style="stroke:rgb(0,0,0);stroke-width:0.850000pt" />
<line x1="51.500000pt" y1="80.000000pt" x2="51.500000pt" y2="10.000000pt" style="stroke:rgb(0,0,0);stroke-width:0.850000pt" />
<line x1="53.500000pt" y1="80.000000pt" x2="53.500000pt" y2="10.000000pt" style="stroke:rgb(0,0,0);stroke-width:0.850000pt" />
<line x1="58.500000pt" y1="80.000000pt" x2="58.500000pt" y2="10.000000pt" style="stroke:rgb(0,0,0);stroke-width:2.850000pt" />
<line x1="61.500000pt" y1="80.000000pt" x2="61.500000pt" y2="10.000000pt" style="stroke:rgb(0,0,0);stroke-width:0.850000pt" />
<line x1="63.500000pt" y1="80.000000pt" x2="63.500000pt" y2="10.000000pt" style="stroke:rgb(0,0,0);stroke-width:0.850000pt" />
<line x1="66.500000pt" y1="80.000000pt" x2="66.500000pt" y2="10.000000pt" style="stroke:rgb(0,0,0);stroke-width:2.850000pt" />
<line x1="71.500000pt" y1="80.000000pt" x2="71.500000pt" y2="10.000000pt" style="stroke:rgb(0,0,0);stroke-width:0.850000pt" />
<line x1="73.500000pt" y1="80.000000pt" x2="73.500000pt" y2="10.000000pt" style="stroke:rgb(0,0,0);stroke-width:0.850000pt" />
<line x1="75.500000pt" y1="80.000000pt" x2="75.500000pt" y2="10.000000pt" style="stroke:rgb(0,0,0);stroke-width:0.850000pt" />
<line x1="77.500000pt" y1="80.000000pt" x2="77.500000pt" y2="10.000000pt" style="stroke:rgb(0,0,0);stroke-width:0.850000pt" />
<line x1="82.500000pt" y1="80.000000pt" x2="82.500000pt" y2="10.000000pt" style="stroke:rgb(0,0,0);stroke-width:2.850000pt" />
<line x1="85.500000pt" y1="80.000000pt" x2="85.500000pt" y2="10.000000pt" style="stroke:rgb(0,0,0);stroke-width:0.850000pt" />
<line x1="87.500000pt" y1="80.000000pt" x2="87.500000pt" y2="10.000000pt" style="stroke:rgb(0,0,0);stroke-width:0.850000pt" />
<line x1="89.500000pt" y1="80.000000pt" x2="89.500000pt" y2="10.000000pt" style="stroke:rgb(0,0,0);stroke-width:0.850000pt" />
<line x1="94.500000pt" y1="80.000000pt" x2="94.500000pt" y2="10.000000pt" style="stroke:rgb(0,0,0);stroke-width:2.850000pt" />
<line x1="97.500000pt" y1="80.000000pt" x2="97.500000pt" y2="10.000000pt" style="stroke:rgb(0,0,0);stroke-width:0.850000pt" />
<line x1="100.500000pt" y1="80.000000pt" x2="100.500000pt" y2="10.000000pt" style="stroke:rgb(0,0,0);stroke-width:2.850000pt" />
<line x1="105.500000pt" y1="80.000000pt" x2="105.500000pt" y2="10.000000pt" style="stroke:rgb(0,0,0);stroke-width:0.850000pt" />
<line x1="109.500000pt" y1="80.000000pt" x2="109.500000pt" y2="10.000000pt" style="stroke:rgb(0,0,0);stroke-width:0.850000pt" />
<text x="10.000000pt" y="90.000000pt" fill="black" style="font-family:Helvetica;font-size:12pt">A</text>
<text x="24.000000pt" y="90.000000pt" fill="black" style="font-family:Helvetica;font-size:12pt">0</text>
<text x="36.000000pt" y="90.000000pt" fill="black" style="font-family:Helvetica;font-size:12pt">0</text>
<text x="48.000000pt" y="90.000000pt" fill="black" style="font-family:Helvetica;font-size:12pt">0</text>
<text x="60.000000pt" y="90.000000pt" fill="black" style="font-family:Helvetica;font-size:12pt">1</text>
<text x="72.000000pt" y="90.000000pt" fill="black" style="font-family:Helvetica;font-size:12pt">0</text>
<text x="84.000000pt" y="90.000000pt" fill="black" style="font-family:Helvetica;font-size:12pt">0</text>
<text x="96.000000pt" y="90.000000pt" fill="black" style="font-family:Helvetica;font-size:12pt">A</text>
<!-- End barcode for "A000100A" -->

</svg>
